<svg width="1357" height="939" viewBox="0 0 1357 939" fill="none" xmlns="http://www.w3.org/2000/svg">
<g clip-path="url(#clip0_3209_22405)">
<mask id="mask0_3209_22405" style="mask-type:luminance" maskUnits="userSpaceOnUse" x="0" y="0" width="1357" height="939">
<path d="M0 -2.79645e-05H1356.23V938.332H0V-2.79645e-05Z" fill="white"/>
</mask>
<g mask="url(#mask0_3209_22405)">
<path d="M199.593 832.487C204.433 828.231 207.394 822.731 208.514 816.065H246.397C244.557 832.073 237.917 845.182 226.516 855.314C215.114 865.446 198.553 870.531 176.832 870.531C156.109 870.531 139.108 863.939 125.786 850.793C112.465 837.647 105.785 820.773 105.785 800.206C105.785 779.377 112.425 762.463 125.666 749.43C138.948 736.435 155.989 729.918 176.832 729.918C198.513 729.918 215.114 734.966 226.596 745.023C238.077 755.118 244.677 768.226 246.397 784.386H208.514C207.233 777.982 204.073 772.558 199.033 768.151C193.992 763.743 186.992 761.559 177.912 761.559C168.27 761.559 160.309 765.063 154.069 772.069C147.828 779.074 144.788 788.454 144.908 800.206C145.068 811.959 148.188 821.338 154.389 828.345C160.59 835.35 168.47 838.853 178.112 838.853C187.632 838.891 194.792 836.743 199.593 832.487Z" fill="black"/>
<path d="M352.502 828.682C359.111 821.751 362.394 812.259 362.394 800.243C362.394 788.227 359.068 778.773 352.39 771.917C345.738 765.023 337.358 761.597 327.268 761.597C317.187 761.597 308.799 765.023 302.116 771.917C295.472 778.81 292.111 788.227 292.111 800.243C292.111 812.259 295.432 821.751 302.116 828.682C308.764 835.613 317.144 839.115 327.268 839.115C337.512 839.078 345.9 835.613 352.502 828.682ZM274.035 851.321C260.311 838.514 253.43 821.487 253.43 800.243C253.43 778.999 260.311 761.973 274.035 749.166C287.759 736.359 305.518 729.918 327.268 729.918C348.986 729.918 366.746 736.321 380.47 749.166C394.194 761.973 401.076 778.999 401.076 800.243C401.076 821.487 394.194 838.514 380.47 851.321C366.746 864.127 348.986 870.531 327.268 870.531C305.518 870.531 287.799 864.127 274.035 851.321Z" fill="black"/>
<path d="M500.151 830.445C506.409 823.699 509.53 813.523 509.53 799.994C509.53 786.619 506.367 776.558 500.033 769.851C493.705 763.145 485.374 759.791 474.995 759.791H453.918V840.543H474.995C485.493 840.582 493.866 837.229 500.151 830.445ZM528.485 748.651C541.985 761.141 548.719 778.254 548.719 799.994C548.719 822.003 542.026 839.233 528.562 851.759C515.141 864.25 497.269 870.531 474.995 870.531H415.137V729.918H474.995C497.15 729.918 514.979 736.163 528.485 748.651Z" fill="black"/>
<path d="M668.241 840.195V870.529H562.781V729.917H667.215V760.252H600.867V785.268H658.004V814.563H600.867V840.195H668.241Z" fill="black"/>
<path d="M776.103 832.487C780.947 828.231 783.909 822.731 785.025 816.065H822.913C821.073 832.073 814.427 845.182 803.03 855.314C791.627 865.446 775.063 870.531 753.346 870.531C732.619 870.531 715.619 863.939 702.295 850.793C688.979 837.647 682.301 820.773 682.301 800.206C682.301 779.377 688.937 762.463 702.177 749.43C715.422 736.435 732.499 729.918 753.346 729.918C775.027 729.918 791.627 734.966 803.109 745.023C814.589 755.118 821.19 768.226 822.913 784.386H785.025C783.745 777.982 780.589 772.558 775.549 768.151C770.507 763.743 763.463 761.559 754.386 761.559C744.741 761.559 736.781 765.063 730.545 772.069C724.302 779.074 721.258 788.454 721.383 800.206C721.539 811.959 724.659 821.338 730.861 828.345C737.062 835.35 744.943 838.853 754.582 838.853C764.102 838.891 771.266 836.743 776.103 832.487Z" fill="black"/>
<path d="M929.015 828.682C935.623 821.751 938.907 812.259 938.907 800.243C938.907 788.227 935.581 778.773 928.901 771.917C922.251 765.023 913.871 761.597 903.781 761.597C893.7 761.597 885.312 765.023 878.633 771.917C871.983 778.81 868.621 788.227 868.621 800.243C868.621 812.259 871.947 821.751 878.633 828.682C885.276 835.613 893.656 839.115 903.781 839.115C913.989 839.078 922.413 835.613 929.015 828.682ZM850.544 851.321C836.821 838.514 829.945 821.487 829.945 800.243C829.945 778.999 836.821 761.973 850.544 749.166C864.268 736.359 882.029 729.918 903.781 729.918C925.499 729.918 943.259 736.321 956.983 749.166C970.707 761.973 977.589 778.999 977.589 800.243C977.589 821.487 970.707 838.514 956.983 851.321C943.259 864.127 925.499 870.531 903.781 870.531C882.029 870.531 864.312 864.127 850.544 851.321Z" fill="black"/>
<path d="M1083.68 828.682C1090.28 821.751 1093.57 812.259 1093.57 800.243C1093.57 788.227 1090.25 778.773 1083.56 771.917C1076.91 765.023 1068.52 761.597 1058.44 761.597C1048.35 761.597 1039.96 765.023 1033.28 771.917C1026.63 778.81 1023.27 788.227 1023.27 800.243C1023.27 812.259 1026.59 821.751 1033.28 828.682C1039.92 835.613 1048.31 839.115 1058.44 839.115C1068.68 839.078 1077.11 835.613 1083.68 828.682ZM1005.23 851.321C991.502 838.514 984.619 821.487 984.619 800.243C984.619 778.999 991.502 761.973 1005.23 749.166C1018.96 736.359 1036.72 729.918 1058.44 729.918C1080.16 729.918 1097.92 736.321 1111.65 749.166C1125.37 761.973 1132.26 778.999 1132.26 800.243C1132.26 821.487 1125.37 838.514 1111.65 851.321C1097.92 864.127 1080.16 870.531 1058.44 870.531C1036.72 870.531 1018.96 864.127 1005.23 851.321Z" fill="black"/>
<path d="M1251.78 838.153V870.531H1146.32V729.918H1185.11V838.153H1251.78Z" fill="black"/>
<path d="M552.815 346.891L694.095 205.611C727.689 171.992 788.124 161.701 835.563 179.613L762 106.045C748.285 92.3346 731.608 81.64 713.048 75.8506C702.211 72.4733 690.952 70.84 679.693 70.84C664.256 70.84 648.816 73.9133 634.448 79.7786C605.317 91.668 585.292 115.416 563.592 137.12L537.044 163.665C530.356 170.363 524.521 178.499 519.715 187.865C510.635 205.372 505.836 226.031 505.836 247.601C505.836 280.856 517.213 311.291 537.044 331.133L552.815 346.891Z" fill="#0F3FFF"/>
<path d="M475.511 225.229C435.883 264.837 384.729 304.009 384.729 365.424C384.729 396.244 396.971 424.774 420.119 447.932L477.858 505.666C502.278 530.036 542.391 539.801 575.945 536.333C601.35 533.705 626.93 523.953 645.215 505.673L663.454 487.416L522.169 346.121C500.459 324.421 488.007 291.34 488.007 255.378C488.007 237.057 491.25 219.289 497.454 203.296L475.511 225.229Z" fill="#0F3FFF"/>
<path d="M900.343 243.884C889.203 232.739 885.856 229.398 874.707 218.251C868.77 212.326 861.798 207.247 853.446 202.755C835.686 193.274 814.972 188.719 794.308 188.718C762.05 188.716 729.883 199.81 709.09 220.599L690.85 238.859L834.622 382.631C856.322 404.328 868.771 437.412 868.771 473.368C868.771 491.656 865.548 509.355 859.391 525.324L936.795 447.922C939.535 445.184 942.162 442.198 944.532 439.34C961.478 418.814 970.422 393.935 971.41 368.815C972.367 344.334 965.771 318.36 951.402 298.303C936.859 278.006 917.914 261.451 900.343 243.884Z" fill="#0F3FFF"/>
<path d="M517.523 545.447L594.795 622.711C597.533 625.458 600.395 627.956 603.247 630.326C621.934 645.852 645.471 655.212 669.673 657.048C698.773 659.248 729.001 650.57 751.542 631.823C778.879 609.098 794.657 590.168 819.743 565.086C826.425 558.4 832.258 550.267 837.078 540.895C846.153 523.382 850.958 502.728 850.958 481.164C850.958 447.91 839.577 417.462 819.743 397.622L801.499 379.383L660.205 520.655C626.418 554.456 566.079 564.287 517.523 545.447Z" fill="#0F3FFF"/>
<path d="M489.52 233.973C491.044 223.279 493.704 212.963 497.453 203.297L475.51 225.23C475.31 225.43 475.106 225.63 474.906 225.83C479.892 228.838 484.769 231.565 489.52 233.973Z" fill="#FF006B"/>
<path d="M555.657 239.932C604.422 205.536 599.569 161.146 582.832 117.544C576.378 124.008 570.057 130.654 563.59 137.122L537.042 163.666C530.354 170.364 524.52 178.499 519.713 187.867C511.534 203.636 506.844 221.966 505.99 241.212C525.932 248.527 542.957 248.891 555.657 239.932Z" fill="#FF006B"/>
<path d="M600.847 628.293C597.652 622.237 593.676 616.261 588.868 610.388C572.095 589.902 560.933 571.268 553.733 554.076C541.34 552.778 529.096 549.936 517.521 545.445L594.793 622.709C596.763 624.685 598.799 626.529 600.847 628.293Z" fill="#FF006B"/>
<path d="M477.858 505.666C495.613 523.385 521.663 533.374 547.458 536.18C528.542 469.078 567.669 424.262 549.197 373.153L522.169 346.121C512.914 336.872 505.361 325.541 499.719 312.813C495.033 309.16 489.983 305.445 484.518 301.66C467.039 289.55 450.142 277.72 433.777 266.146C407.135 293.881 384.729 324.78 384.729 365.424C384.729 396.244 396.971 424.774 420.119 447.932L477.858 505.666Z" fill="#FF006B"/>
<path d="M728.578 549.303C703.249 529.774 626.429 549.494 558.359 586.279L594.795 622.71C597.533 625.457 600.395 627.957 603.247 630.325C621.934 645.853 645.471 655.213 669.673 657.049C698.773 659.247 729.001 650.569 751.542 631.823C759.486 625.219 766.438 618.939 772.942 612.733C754.545 580.185 738.438 556.905 728.578 549.303Z" fill="#B058E9"/>
<path d="M517.523 545.446L586.045 613.961C595.249 596.792 599.141 574.985 598.582 552.006C572.035 557.337 543.141 555.386 517.523 545.446Z" fill="#00EACB"/>
<path d="M396.09 414.664C401.933 426.61 409.979 437.786 420.118 447.932L477.858 505.666C502.277 530.036 542.39 539.801 575.945 536.333C583.031 535.6 590.127 534.29 597.079 532.418C591.041 485.334 567.89 437.465 534.63 417.204C496.166 393.774 440.715 399.621 396.09 414.664Z" fill="#00EACB"/>
<path d="M892.298 454.047C881.442 443.873 870.355 433.472 859.787 422.541C861.508 427.101 862.967 431.832 864.208 436.676C871.963 444.319 879.855 451.735 887.635 459.024C894.13 465.112 900.686 471.264 907.162 477.555L911.987 472.729C905.452 466.381 898.844 460.183 892.298 454.047Z" fill="#1F1852"/>
<path d="M765.226 264.341C760.258 244.325 759.349 223.171 758.472 202.715C758.341 199.663 758.209 196.585 758.062 193.493C755.789 194.108 753.546 194.795 751.326 195.527C751.441 198.032 751.55 200.529 751.656 203.007C752.549 223.803 753.468 245.303 758.602 265.987C764.678 290.481 774.102 312.848 785.078 333.088L804.577 352.588C788.229 327.176 773.512 297.743 765.226 264.341Z" fill="#1F1852"/>
<path d="M709.089 220.6L705.529 224.164C707.316 236.215 709.443 248.184 712.012 260.023L721.099 269.109C717.059 252.436 713.991 235.435 711.576 218.265C710.741 219.037 709.892 219.797 709.089 220.6Z" fill="#1F1852"/>
<path d="M695.498 113.604C697.242 141.667 699.012 170.148 702.186 198.395C704.236 196.748 706.351 195.165 708.538 193.661C705.648 166.855 703.964 139.828 702.308 113.183L701.227 96.0412C700.755 88.6665 700.691 80.8865 700.959 72.8359C698.704 72.4065 696.439 72.0625 694.166 71.7732C693.852 80.3572 693.91 88.6439 694.416 96.4825L695.498 113.604Z" fill="#1F1852"/>
<path d="M850.704 489.63C840.065 478.103 829.277 466.75 818.636 455.556L812.352 448.943C798.737 434.603 787.157 419.288 777.205 403.672L772.268 408.61C782.249 424.122 793.828 439.343 807.401 453.64L813.686 460.258C825.701 472.894 837.902 485.734 849.854 498.787C850.232 495.764 850.521 492.711 850.704 489.63Z" fill="#1F1852"/>
<path d="M971.384 359.102C970.488 337.608 963.882 315.726 951.4 298.304C936.856 278.007 917.912 261.452 900.342 243.886C889.2 232.74 885.855 229.399 874.706 218.252C868.768 212.327 861.796 207.248 853.444 202.756C838.203 194.619 820.787 190.123 803.094 189.007C804.399 190.572 805.7 192.136 807.048 193.71C811.128 225.128 819.168 256.458 831.22 288.914C852.071 345.082 884.764 403.484 925.9 458.816L930.772 453.943C890.304 399.372 858.147 341.848 837.616 286.539C827.067 258.122 819.638 230.579 815.304 203.064C836.084 226.02 861.464 249.646 891.743 273.842C906.482 323.476 926.563 375.582 957.983 419.114C959.196 416.802 960.308 414.452 961.359 412.082C933.746 372.792 915.171 326.547 901.251 281.644C930.591 306.375 953.483 332.383 971.384 359.102Z" fill="#1F1852"/>
<path d="M871.744 512.974C869.604 510.529 867.442 508.095 865.274 505.666C864.677 508.367 864.01 511.038 863.264 513.671C864.482 515.049 865.7 516.426 866.909 517.809L871.744 512.974Z" fill="#1F1852"/>
<path d="M755.803 163.581C755.069 157.447 754.259 151.313 753.453 145.169C751.25 128.46 749.009 111.385 748.403 94.208C746.149 92.5067 743.833 90.8907 741.469 89.3494C741.769 108.552 744.246 127.527 746.687 146.061C747.493 152.176 748.301 158.284 749.026 164.387C749.457 168.012 749.806 171.667 750.105 175.332C752.329 174.777 754.574 174.291 756.831 173.839C756.543 170.412 756.209 166.989 755.803 163.581Z" fill="#1F1852"/>
<path d="M762 106.047C757.748 101.796 753.209 97.8359 748.42 94.2213C755.84 118.651 769.187 144.288 788.896 170.948C804.909 171.227 820.86 174.063 835.561 179.613L762 106.047Z" fill="#1F1852"/>
</g>
</g>
<defs>
<clipPath id="clip0_3209_22405">
<rect width="1356.23" height="938.332" fill="white"/>
</clipPath>
</defs>
</svg>
