<svg width="1076" height="162" viewBox="0 0 1076 162" fill="none" xmlns="http://www.w3.org/2000/svg">
<path d="M273.903 139.333C266.288 139.333 259.123 137.88 252.41 134.974C245.696 132.068 239.834 128.109 234.824 123.098C229.914 118.088 226.006 112.275 223.101 105.661C220.195 98.9471 218.742 91.782 218.742 84.166C218.742 76.5493 220.195 69.4342 223.101 62.8201C226.006 56.1058 229.914 50.2433 234.824 45.2326C239.834 40.2219 245.696 36.2635 252.41 33.3573C259.123 30.4511 266.288 28.998 273.903 28.998C279.414 28.998 284.675 29.6995 289.685 31.1025C294.795 32.5055 299.455 34.5098 303.663 37.1153C307.972 39.6206 311.83 42.6772 315.237 46.2848C318.644 49.7923 321.499 53.7508 323.804 58.1601L302.762 69.5845C299.756 64.173 295.848 59.9139 291.038 56.8073C286.328 53.7006 280.617 52.1473 273.903 52.1473C269.494 52.1473 265.386 52.9992 261.578 54.7028C257.871 56.4064 254.614 58.7614 251.809 61.7678C249.003 64.674 246.798 68.0813 245.195 71.9896C243.592 75.7977 242.79 79.856 242.79 84.166C242.79 88.475 243.592 92.583 245.195 96.492C246.798 100.3 249.003 103.707 251.809 106.714C254.614 109.62 257.871 111.925 261.578 113.628C265.386 115.332 269.494 116.184 273.903 116.184C280.617 116.184 286.328 114.63 291.038 111.524C295.848 108.417 299.756 104.158 302.762 98.747L323.804 110.171C321.499 114.58 318.644 118.589 315.237 122.197C311.83 125.704 307.972 128.761 303.663 131.366C299.455 133.871 294.795 135.826 289.685 137.229C284.675 138.632 279.414 139.333 273.903 139.333Z" fill="black"/>
<path d="M335.82 62.3707H358.516V73.6446C359.719 70.3376 361.923 67.4815 365.13 65.0764C368.436 62.6712 372.194 61.4688 376.402 61.4688C377.505 61.4688 378.657 61.5188 379.859 61.619C381.062 61.7192 382.365 61.9699 383.767 62.3707V85.3696C382.064 84.7686 380.411 84.3175 378.807 84.0165C377.204 83.7165 375.501 83.5656 373.697 83.5656C368.787 83.5656 365.029 85.2696 362.424 88.6766C359.819 92.0836 358.516 96.4935 358.516 101.905V137.531H335.82V62.3707Z" fill="black"/>
<path d="M424.161 139.184C419.251 139.184 414.642 138.132 410.333 136.027C406.125 133.923 402.467 131.117 399.361 127.609C396.255 124.001 393.8 119.843 391.996 115.133C390.193 110.322 389.291 105.261 389.291 99.9502C389.291 94.6392 390.193 89.6282 391.996 84.9182C393.8 80.1082 396.255 75.9492 399.361 72.4418C402.467 68.8341 406.125 65.978 410.333 63.8735C414.642 61.769 419.251 60.7168 424.161 60.7168C426.666 60.7168 428.971 61.0174 431.075 61.6187C433.28 62.1198 435.234 62.8213 436.937 63.7232C438.741 64.6251 440.244 65.6272 441.446 66.7296C442.749 67.8319 443.801 68.8842 444.603 69.8863V62.3703H467.299V137.53H444.603V130.014C443.801 131.016 442.749 132.069 441.446 133.171C440.244 134.273 438.741 135.275 436.937 136.177C435.234 137.079 433.28 137.781 431.075 138.282C428.971 138.883 426.666 139.184 424.161 139.184ZM429.272 118.59C434.382 118.59 438.49 116.836 441.597 113.329C444.803 109.821 446.406 105.362 446.406 99.9502C446.406 94.5392 444.803 90.0792 441.597 86.5722C438.49 83.0642 434.382 81.3102 429.272 81.3102C424.161 81.3102 420.003 83.0642 416.796 86.5722C413.69 90.0792 412.137 94.5392 412.137 99.9502C412.137 105.362 413.69 109.821 416.796 113.329C420.003 116.836 424.161 118.59 429.272 118.59Z" fill="black"/>
<path d="M529.116 139.183C526.611 139.183 524.256 138.882 522.051 138.281C519.947 137.78 517.993 137.078 516.19 136.176C514.486 135.274 512.983 134.272 511.681 133.17C510.378 132.068 509.376 131.015 508.674 130.013V137.529H485.979V24.7891H508.674V69.8852C509.376 68.8831 510.378 67.8308 511.681 66.7285C512.983 65.6261 514.486 64.624 516.19 63.7221C517.993 62.8202 519.947 62.1187 522.051 61.6176C524.256 61.0163 526.611 60.7157 529.116 60.7157C534.026 60.7157 538.585 61.7679 542.793 63.8724C547.102 65.9769 550.81 68.833 553.916 72.4407C557.022 75.9481 559.477 80.1071 561.281 84.9171C563.084 89.6271 563.986 94.6381 563.986 99.9491C563.986 105.26 563.084 110.321 561.281 115.132C559.477 119.842 557.022 124 553.916 127.608C550.81 131.116 547.102 133.922 542.793 136.026C538.585 138.131 534.026 139.183 529.116 139.183ZM524.005 118.589C529.116 118.589 533.224 116.835 536.33 113.328C539.537 109.82 541.14 105.361 541.14 99.9491C541.14 94.5381 539.537 90.0781 536.33 86.5711C533.224 83.0631 529.116 81.3091 524.005 81.3091C518.895 81.3091 514.737 83.0631 511.53 86.5711C508.424 90.0781 506.87 94.5381 506.87 99.9491C506.87 105.361 508.424 109.82 511.53 113.328C514.737 116.835 518.895 118.589 524.005 118.589Z" fill="black"/>
<path d="M654.106 137.53L602.101 71.5394V137.53H578.203V30.8027H598.795L650.649 96.7928V30.8027H674.698V137.53H654.106Z" fill="black"/>
<path d="M728.852 139.184C723.341 139.184 718.13 138.282 713.22 136.478C708.411 134.674 704.202 132.069 700.595 128.661C696.988 125.254 694.132 121.145 692.028 116.335C689.923 111.425 688.871 105.963 688.871 99.9502C688.871 94.3382 689.823 89.1772 691.727 84.4672C693.731 79.6572 696.487 75.4983 699.994 71.9908C703.601 68.4833 707.809 65.7275 712.619 63.7232C717.429 61.7189 722.69 60.7168 728.401 60.7168C733.311 60.7168 738.021 61.5185 742.53 63.1219C747.139 64.6251 751.147 66.93 754.554 70.0366C757.961 73.043 760.666 76.8512 762.67 81.4612C764.775 85.9702 765.827 91.2822 765.827 97.3952C765.827 98.3972 765.777 99.5492 765.677 100.852C765.677 102.055 765.576 103.558 765.376 105.362H710.816C711.517 109.871 713.671 113.228 717.279 115.433C720.886 117.538 724.844 118.59 729.153 118.59C733.562 118.59 737.319 117.738 740.425 116.034C743.632 114.231 745.937 112.226 747.339 110.022L764.173 122.649C760.666 127.659 755.857 131.668 749.744 134.674C743.732 137.681 736.768 139.184 728.852 139.184ZM743.281 90.4802C742.279 86.4712 740.275 83.6152 737.269 81.9122C734.263 80.1082 731.107 79.2062 727.8 79.2062C726.096 79.2062 724.393 79.4062 722.69 79.8072C720.986 80.2082 719.383 80.8592 717.88 81.7612C716.377 82.6632 715.024 83.8162 713.822 85.2192C712.719 86.6222 711.918 88.3762 711.417 90.4802H743.281Z" fill="black"/>
<path d="M823.266 139.183C820.761 139.183 818.406 138.882 816.202 138.281C814.098 137.78 812.144 137.078 810.34 136.176C808.637 135.274 807.134 134.272 805.831 133.17C804.528 132.068 803.526 131.015 802.825 130.013V137.529H780.129V24.7891H802.825V69.8852C803.526 68.8831 804.528 67.8308 805.831 66.7285C807.134 65.6261 808.637 64.624 810.34 63.7221C812.144 62.8202 814.098 62.1187 816.202 61.6176C818.406 61.0163 820.761 60.7157 823.266 60.7157C828.176 60.7157 832.735 61.7679 836.944 63.8724C841.253 65.9769 844.96 68.833 848.066 72.4407C851.173 75.9481 853.628 80.1071 855.431 84.9171C857.235 89.6271 858.137 94.6381 858.137 99.9491C858.137 105.26 857.235 110.321 855.431 115.132C853.628 119.842 851.173 124 848.066 127.608C844.96 131.116 841.253 133.922 836.944 136.026C832.735 138.131 828.176 139.183 823.266 139.183ZM818.156 118.589C823.266 118.589 827.375 116.835 830.481 113.328C833.687 109.82 835.291 105.361 835.291 99.9491C835.291 94.5381 833.687 90.0781 830.481 86.5711C827.375 83.0631 823.266 81.3091 818.156 81.3091C813.046 81.3091 808.887 83.0631 805.681 86.5711C802.574 90.0781 801.021 94.5381 801.021 99.9491C801.021 105.361 802.574 109.82 805.681 113.328C808.887 116.835 813.046 118.589 818.156 118.589Z" fill="black"/>
<path d="M899.811 139.183C890.492 139.183 883.428 136.076 878.618 129.863C873.809 123.65 871.404 115.432 871.404 105.21V62.3691H894.1V101.302C894.1 106.814 894.951 111.073 896.655 114.079C898.458 117.086 901.465 118.589 905.673 118.589C909.982 118.589 913.389 117.036 915.894 113.929C918.499 110.822 919.802 105.812 919.802 98.897V62.3691H942.498V137.529H919.802V129.863C917.998 132.468 915.443 134.673 912.136 136.477C908.829 138.281 904.721 139.183 899.811 139.183Z" fill="black"/>
<path d="M961.109 24.7891H983.81V137.529H961.109V24.7891Z" fill="black"/>
<path d="M1032.86 139.184C1027.95 139.184 1023.34 138.132 1019.03 136.027C1014.83 133.923 1011.17 131.117 1008.06 127.609C1004.96 124.001 1002.5 119.843 1000.7 115.133C998.89 110.322 997.99 105.261 997.99 99.9502C997.99 94.6392 998.89 89.6282 1000.7 84.9182C1002.5 80.1082 1004.96 75.9492 1008.06 72.4418C1011.17 68.8341 1014.83 65.978 1019.03 63.8735C1023.34 61.769 1027.95 60.7168 1032.86 60.7168C1035.37 60.7168 1037.67 61.0174 1039.78 61.6187C1041.98 62.1198 1043.94 62.8213 1045.64 63.7232C1047.44 64.6251 1048.95 65.6272 1050.15 66.7296C1051.45 67.8319 1052.5 68.8842 1053.3 69.8863V62.3703H1076V137.53H1053.3V130.014C1052.5 131.016 1051.45 132.069 1050.15 133.171C1048.95 134.273 1047.44 135.275 1045.64 136.177C1043.94 137.079 1041.98 137.781 1039.78 138.282C1037.67 138.883 1035.37 139.184 1032.86 139.184ZM1037.97 118.59C1043.08 118.59 1047.19 116.836 1050.3 113.329C1053.5 109.821 1055.11 105.362 1055.11 99.9502C1055.11 94.5392 1053.5 90.0792 1050.3 86.5722C1047.19 83.0642 1043.08 81.3102 1037.97 81.3102C1032.86 81.3102 1028.7 83.0642 1025.5 86.5722C1022.39 90.0792 1020.84 94.5392 1020.84 99.9502C1020.84 105.362 1022.39 109.821 1025.5 113.329C1028.7 116.836 1032.86 118.59 1037.97 118.59Z" fill="black"/>
<path fill-rule="evenodd" clip-rule="evenodd" d="M68.4793 31.5861C41.7226 66.8665 41.8774 111.942 68.825 132.265C75.907 137.606 84.135 140.706 92.902 141.733C68.0308 161.935 39.3808 168.204 20.0359 155.046C-6.49416 137.001 -5.47696 89.2497 22.308 48.3915C45.5091 14.2735 80.038 -4.25033 106.246 1.07297C92.403 7.19587 79.115 17.5615 68.4793 31.5861ZM103.637 76.6439C91.14 88.4537 76.858 96.3047 64.8001 98.9167C71.9198 124.368 99.289 126.324 99.289 126.324C99.289 126.324 115.577 122.579 127.876 94.9417C138.004 72.184 137.121 48.6682 126.913 36.7008C126.064 48.2673 117.73 63.3251 103.637 76.6439Z" fill="black"/>
</svg>
